<?xml version="1.0" standalone="no"?>
<svg xmlns:xlink="http://www.w3.org/1999/xlink" id="wave" style="transform:rotate(180deg); transition: 0.3s" viewBox="0 0 1440 100" version="1.1" xmlns="http://www.w3.org/2000/svg"><defs><linearGradient id="sw-gradient-0" x1="0" x2="0" y1="1" y2="0"><stop stop-color="rgba(255, 249, 234, 1)" offset="0%"/><stop stop-color="rgba(255, 249, 234, 1)" offset="100%"/></linearGradient></defs><path style="transform:translate(0, 0px); opacity:1" fill="url(#sw-gradient-0)" d="M0,90L40,80C80,70,160,50,240,46.7C320,43,400,57,480,51.7C560,47,640,23,720,23.3C800,23,880,47,960,50C1040,53,1120,37,1200,28.3C1280,20,1360,20,1440,21.7C1520,23,1600,27,1680,26.7C1760,27,1840,23,1920,30C2000,37,2080,53,2160,65C2240,77,2320,83,2400,76.7C2480,70,2560,50,2640,45C2720,40,2800,50,2880,56.7C2960,63,3040,67,3120,63.3C3200,60,3280,50,3360,45C3440,40,3520,40,3600,45C3680,50,3760,60,3840,68.3C3920,77,4000,83,4080,83.3C4160,83,4240,77,4320,76.7C4400,77,4480,83,4560,81.7C4640,80,4720,70,4800,55C4880,40,4960,20,5040,21.7C5120,23,5200,47,5280,56.7C5360,67,5440,63,5520,60C5600,57,5680,53,5720,51.7L5760,50L5760,100L5720,100C5680,100,5600,100,5520,100C5440,100,5360,100,5280,100C5200,100,5120,100,5040,100C4960,100,4880,100,4800,100C4720,100,4640,100,4560,100C4480,100,4400,100,4320,100C4240,100,4160,100,4080,100C4000,100,3920,100,3840,100C3760,100,3680,100,3600,100C3520,100,3440,100,3360,100C3280,100,3200,100,3120,100C3040,100,2960,100,2880,100C2800,100,2720,100,2640,100C2560,100,2480,100,2400,100C2320,100,2240,100,2160,100C2080,100,2000,100,1920,100C1840,100,1760,100,1680,100C1600,100,1520,100,1440,100C1360,100,1280,100,1200,100C1120,100,1040,100,960,100C880,100,800,100,720,100C640,100,560,100,480,100C400,100,320,100,240,100C160,100,80,100,40,100L0,100Z"/></svg>